<?xml version="1.0" encoding="utf-8"?>
<!-- Svg Vector Icons : http://www.onlinewebfonts.com/icon -->
<!DOCTYPE svg PUBLIC "-//W3C//DTD SVG 1.1//EN" "http://www.w3.org/Graphics/SVG/1.1/DTD/svg11.dtd">
<svg version="1.1" xmlns="http://www.w3.org/2000/svg" xmlns:xlink="http://www.w3.org/1999/xlink" x="0px" y="0px" viewBox="0 0 1000 1000" enable-background="new 0 0 1000 1000" xml:space="preserve">
<metadata> Svg Vector Icons : http://www.onlinewebfonts.com/icon </metadata>
<g><path d="M743.3,40.6H255.9v364.6h487.4V40.6L743.3,40.6z M684.4,345H561.9V100h122.5V345L684.4,345z"/><path d="M867.4,40.6h-55.7v433H190.8v-433h-58.4C64.8,40.6,10,96.9,10,166.3v667.3c0,69.4,54.9,125.8,122.5,125.8h735c67.7,0,122.5-56.4,122.5-125.8V166.3L867.4,40.6L867.4,40.6z M743.7,835h-490v-61.3h490V835L743.7,835z M743.7,712.5h-490v-61.3h490V712.5L743.7,712.5z"/></g>
</svg>